<svg xmlns="http://www.w3.org/2000/svg" xmlns:xlink="http://www.w3.org/1999/xlink" width="346" height="190" viewBox="0 0 346 190">
  <defs>
    <style>
      .cls-1 {
        fill: url(#linear-gradient);
      }

      .cls-2, .cls-5, .cls-7, .cls-8, .cls-9 {
        fill: #fff;
      }

      .cls-2, .cls-3 {
        opacity: 0.1;
      }

      .cls-13, .cls-4, .cls-6 {
        fill: none;
      }

      .cls-11, .cls-4, .cls-6 {
        stroke: #fff;
      }

      .cls-11, .cls-6 {
        stroke-width: 2px;
      }

      .cls-7 {
        font-size: 16px;
      }

      .cls-10, .cls-7 {
        font-family: Montserrat-Regular, Montserrat;
      }

      .cls-7, .cls-8 {
        letter-spacing: -0.09em;
      }

      .cls-10, .cls-8 {
        font-size: 10px;
      }

      .cls-8, .cls-9 {
        font-family: Montserrat-SemiBold, Montserrat;
        font-weight: 600;
      }

      .cls-9 {
        font-size: 25px;
        letter-spacing: 0.03em;
      }

      .cls-10 {
        fill: #c1c1c1;
      }

      .cls-11 {
        fill: #358df3;
      }

      .cls-12 {
        stroke: none;
      }
    </style>
    <linearGradient id="linear-gradient" y1="0.5" x2="1" y2="0.5" gradientUnits="objectBoundingBox">
      <stop offset="0" stop-color="#3a90f5"/>
      <stop offset="1" stop-color="#75b4ff"/>
    </linearGradient>
  </defs>
  <g id="Group_5" data-name="Group 5" transform="translate(-14 -113)">
    <rect id="Rectangle_5" data-name="Rectangle 5" class="cls-1" width="346" height="190" rx="25" transform="translate(14 113)"/>
    <path id="Icon_payment-ripple" data-name="Icon payment-ripple" class="cls-2" d="M121.731,47.193a29.616,29.616,0,0,1-8.916,18.776A25.73,25.73,0,0,1,93.99,73.876Q84.08,72.909,82.1,83.76q0,10.885,10.9,10.869,21.779.991,26.752,20.752,2.972,9.886-2.97,19.269A27.888,27.888,0,0,1,99.936,147a23.615,23.615,0,0,1-19.319-2.469,25.747,25.747,0,0,1-12.385-15.315q-2.972-11.86,2.97-21.738,6.916-9.863-2.97-14.822-7.94-5.929-14.861,3.953-15.857,23.72-37.649,8.892a33.451,33.451,0,0,1-5.768-4.708c0-21.809,0-13.136,0-34.935,3.85-4.578,9.472-7.582,16.666-8.778q18.807-1.974,26.752,13.837,4.952,9.886,14.861,4.939,8.918-4.94,2.97-15.813c-4.626-9.2-4.481-18.214.642-26.672,10.782,0,34.9-.016,46.256-.016a25.283,25.283,0,0,1,3.63,13.836Z" transform="translate(4.046 79.643)"/>
    <g id="Group_1" data-name="Group 1" class="cls-3" transform="translate(0 -1)">
      <line id="Line_1" data-name="Line 1" class="cls-4" y2="121" transform="translate(214.5 148.5)"/>
      <line id="Line_6" data-name="Line 6" class="cls-4" y2="121" transform="translate(264.5 148.5)"/>
      <line id="Line_2" data-name="Line 2" class="cls-4" y2="121" transform="translate(224.5 148.5)"/>
      <line id="Line_7" data-name="Line 7" class="cls-4" y2="121" transform="translate(274.5 148.5)"/>
      <line id="Line_11" data-name="Line 11" class="cls-4" y2="121" transform="translate(314.5 148.5)"/>
      <line id="Line_3" data-name="Line 3" class="cls-4" y2="121" transform="translate(234.5 148.5)"/>
      <line id="Line_8" data-name="Line 8" class="cls-4" y2="121" transform="translate(284.5 148.5)"/>
      <line id="Line_12" data-name="Line 12" class="cls-4" y2="121" transform="translate(324.5 148.5)"/>
      <line id="Line_4" data-name="Line 4" class="cls-4" y2="121" transform="translate(244.5 148.5)"/>
      <line id="Line_9" data-name="Line 9" class="cls-4" y2="121" transform="translate(294.5 148.5)"/>
      <line id="Line_13" data-name="Line 13" class="cls-4" y2="121" transform="translate(334.5 148.5)"/>
      <line id="Line_5" data-name="Line 5" class="cls-4" y2="121" transform="translate(254.5 148.5)"/>
      <line id="Line_10" data-name="Line 10" class="cls-4" y2="121" transform="translate(304.5 148.5)"/>
      <line id="Line_14" data-name="Line 14" class="cls-4" y2="121" transform="translate(344.5 148.5)"/>
    </g>
    <circle id="Ellipse_2" data-name="Ellipse 2" class="cls-5" cx="4.5" cy="4.5" r="4.5" transform="translate(270 200)"/>
    <circle id="Ellipse_3" data-name="Ellipse 3" class="cls-5" cx="4.5" cy="4.5" r="4.5" transform="translate(340 239)"/>
    <path id="Path_1" data-name="Path 1" class="cls-6" d="M2204.5,158.5s12.553,48.024,64.947,47.514S2334.5,244.1,2334.5,244.1" transform="translate(-1990 -1)"/>
    <g id="Group_2" data-name="Group 2">
      <text id="Ripple_XMR_" data-name="Ripple (XMR)" class="cls-7" transform="translate(36 208)"><tspan x="0" y="0">Ripple (XMR)</tspan></text>
      <text id="_" data-name="$" class="cls-8" transform="translate(28 246)"><tspan x="0" y="0">$</tspan></text>
      <text id="_8_450.00" data-name="8,450.00" class="cls-9" transform="translate(38 255)"><tspan x="0" y="0">8,450.00</tspan></text>
      <text id="_230.00XMR" data-name="230.00XMR" class="cls-10" transform="translate(38 274)"><tspan x="0" y="0">230.00XMR</tspan></text>
    </g>
    <g id="Ellipse_1" data-name="Ellipse 1" class="cls-11" transform="translate(34 140)">
      <circle class="cls-12" cx="22.5" cy="22.5" r="22.5"/>
      <circle class="cls-13" cx="22.5" cy="22.5" r="21.5"/>
    </g>
    <path id="Icon_payment-ripple-2" data-name="Icon payment-ripple" class="cls-5" d="M20.871,24.268a4.4,4.4,0,0,1-1.32,2.787,3.8,3.8,0,0,1-2.787,1.174Q15.3,28.085,15,29.7a1.425,1.425,0,0,0,1.613,1.613,3.842,3.842,0,0,1,3.961,3.08,3.347,3.347,0,0,1-.44,2.86,4.13,4.13,0,0,1-2.494,1.834,3.488,3.488,0,0,1-2.86-.367,3.82,3.82,0,0,1-1.834-2.273,4.1,4.1,0,0,1,.44-3.227q1.024-1.464-.44-2.2-1.175-.88-2.2.587Q8.4,35.125,5.176,32.924a3.815,3.815,0,0,1-1.76-4.107,3.948,3.948,0,0,1,3.374-3.08A3.614,3.614,0,0,1,10.75,27.79a1.448,1.448,0,0,0,2.2.733q1.32-.733.44-2.347a3.836,3.836,0,0,1,.44-4.4,3.458,3.458,0,0,1,4.4-1.174,3.692,3.692,0,0,1,2.641,3.666Z" transform="translate(43.65 133.953)"/>
    <circle id="Ellipse_4" data-name="Ellipse 4" class="cls-5" cx="4.5" cy="4.5" r="4.5" transform="translate(210 153)"/>
  </g>
</svg>
