<svg xmlns="http://www.w3.org/2000/svg" xmlns:xlink="http://www.w3.org/1999/xlink" width="683.49" height="283.931" viewBox="0 0 683.49 283.931">
  <defs>
    <style>
      .cls-1, .cls-3, .cls-4 {
        fill: none;
      }

      .cls-1, .cls-4 {
        stroke: #1a4990;
      }

      .cls-1 {
        stroke-dasharray: 4 2;
      }

      .cls-2, .cls-3 {
        fill-rule: evenodd;
      }

      .cls-2 {
        opacity: 0.1;
        fill: url(#linear-gradient);
      }

      .cls-3 {
        stroke: #07f;
        stroke-width: 1.5px;
      }

      .cls-4 {
        stroke-width: 3px;
      }

      .cls-5 {
        fill: #fff;
        font-size: 14px;
        font-family: Montserrat-Medium, Montserrat;
        font-weight: 500;
      }
    </style>
    <linearGradient id="linear-gradient" x1="0.5" y1="0.331" x2="0.5" y2="1.171" gradientUnits="objectBoundingBox">
      <stop offset="0" stop-color="#1e69d9"/>
      <stop offset="1" stop-color="#fff" stop-opacity="0"/>
    </linearGradient>
  </defs>
  <g id="wykres" transform="translate(-370 -709.069)">
    <path id="Path_15" data-name="Path 15" class="cls-1" d="M0,0H624.31" transform="translate(428.69 919)"/>
    <line id="Line_19" data-name="Line 19" class="cls-1" x2="624.31" transform="translate(428.69 854)"/>
    <line id="Line_20" data-name="Line 20" class="cls-1" x2="624.31" transform="translate(428.69 789)"/>
    <line id="Line_21" data-name="Line 21" class="cls-1" x2="624.31" transform="translate(428.69 724)"/>
    <path id="Graph_Fill" class="cls-2" d="M1.182,304.275l4.007-29.549,14.046-1.269,9.818-11.083,10.265-.609,7.48-16.3L53.376,203.1l4.217-15.159,11.264,31.62,9.161,4.812,6.7-9.18,8.088-40.465L116,256.772l9.547-35.337,10.946,17.737,5.9-27.043,1.151-12.974,8.885-13.25,4.589-18.006,5.071,25.152-.839,16.515,4.679,2.443,3.63-7.352,9.25-116.389,9.043,152.622,7.854-21.755V206.71l6.714-12.839,3.143-9.841,5.785-14.8L225.1,184.662l6.846,8.388,5.526-5.43,9.639,24.406,14.021-47.967,4.1,26.158,8.791,18.1,8.522-5.8,3.98-12.3,6.372-5.558.8-10.564,7.271-25.974,10.675,7.377,5.744-18.873,12.148,147.23,10.435-30.284,13.752-2.118L370.2,272.942l6.4-83.844,8.031,4.72,3.78-9.854,2.129,3.148,4-.961,2.283,4.24,6.342,2.765.113,9.381,7.58,5.947,9.472-1.316.5-15.7,2.383-61.7,7.113,1.064,8.324,14.157,20.826-28.95,8.979-29.679,3.993,9.4,1.51,9.32,7.318,10.679L493.7,95.989l22.711-61.805,6.594,23.034,18.635,37.618,7.019-16.578,7.632-7.7L569.31,82.09l8.21-11.121,14.228,15.015L598.4,56.341l12.934.8,2.319,6.861,12.46-10.753V304.275H1.182Z" transform="translate(426.884 680.816)"/>
    <path id="Graph_Contur" class="cls-3" d="M1.1,305.209l4.049-30.6L19.2,273.337l9.819-11.078,10.265-.609,7.48-16.289,6.579-42.347,4.3-15.152,11.177,31.6,9.161,4.809,6.7-9.175,7.963-41.08,23.314,82.64,9.547-35.32,10.946,17.728,5.9-27.029,1.151-12.968,8.885-13.244,4.589-18,5.072,25.139-.839,16.507,4.679,2.441,3.63-7.348,9.251-116.33,9.043,152.546,7.854-21.745V206.623l6.714-12.833,3.143-9.836,5.785-14.793,13.752,15.426,6.846,8.384,5.526-5.427,9.639,24.393L261.1,163.994l4.1,26.145,8.792,18.087,8.522-5.793,3.98-12.3,6.372-5.555.8-10.559,7.271-25.961,10.675,7.373,5.744-18.863L329.51,283.726l10.436-30.269L353.7,251.34l16.479,21.483,6.4-83.8,8.031,4.717,3.78-9.849,2.129,3.146,4-.96,2.283,4.238,6.342,2.764.113,9.377,7.581,5.944,9.473-1.315.5-15.7,2.383-61.67,7.113,1.063,8.324,14.15,20.827-28.936,8.979-29.664,3.993,9.393,1.51,9.316,7.318,10.674,12.435-19.755L516.4,34.184l6.594,23.022,18.636,37.6,7.019-16.57,7.632-7.692,13.015,11.523L577.5,70.95l14.228,15.008,6.656-29.628,12.934.8,2.319,6.858L626.1,53.243" transform="translate(426.898 680.816)"/>
    <path id="Path_13" data-name="Path 13" class="cls-4" d="M499.773,1799.275v276.286h625" transform="translate(-71.773 -1090.206)"/>
    <text id="_200K" data-name="200K" class="cls-5" transform="translate(370 924)"><tspan x="0" y="0">200K</tspan></text>
    <text id="_0" data-name="0" class="cls-5" transform="translate(398 989)"><tspan x="0" y="0">0</tspan></text>
    <text id="_400K" data-name="400K" class="cls-5" transform="translate(370 859)"><tspan x="0" y="0">400K</tspan></text>
    <text id="_600K" data-name="600K" class="cls-5" transform="translate(370 794)"><tspan x="0" y="0">600K</tspan></text>
    <text id="_800K" data-name="800K" class="cls-5" transform="translate(370 729)"><tspan x="0" y="0">800K</tspan></text>
  </g>
</svg>
